<svg width="510" height="280" viewBox="0 0 510 280" fill="none" xmlns="http://www.w3.org/2000/svg">
<path d="M379.602 279C453.287 279 494.407 240 510 220.5V139L-3.05176e-05 162.5V222.5C-3.05176e-05 245.5 29.5568 279 79.8945 279C142.817 279 160.203 220.5 211.12 220.5C252.93 220.5 305.917 279 379.602 279Z" fill="#CD5378"/>
<path d="M379.602 279.5C453.287 279.5 494.407 240.5 510 221V109.5L-3.05176e-05 133V223C-3.05176e-05 246 29.5568 279.5 79.8945 279.5C142.817 279.5 160.203 221 211.12 221C252.93 221 305.917 279.5 379.602 279.5Z" fill="#DF3F8C"/>
<path d="M130.398 279C56.7127 279 15.5925 240 0 220.5V112L510 135.5V222.5C510 245.5 480.443 279 430.106 279C367.183 279 349.797 220.5 298.88 220.5C257.07 220.5 204.083 279 130.398 279Z" fill="#973150"/>
<path d="M130.398 279C56.7127 279 15.5925 240 0 220.5V139L510 162.5V222.5C510 245.5 480.443 279 430.106 279C367.183 279 349.797 220.5 298.88 220.5C257.07 220.5 204.083 279 130.398 279Z" fill="#973150"/>
<mask id="mask0_225_3" style="mask-type:alpha" maskUnits="userSpaceOnUse" x="0" y="89" width="510" height="190">
<path d="M130.398 279C56.7127 279 15.5925 240 0 220.5V89L510 112.5V222.5C510 245.5 480.443 279 430.106 279C367.183 279 349.797 220.5 298.88 220.5C257.07 220.5 204.083 279 130.398 279Z" fill="#973150"/>
</mask>
<g mask="url(#mask0_225_3)">
<path d="M88.0089 275C61.218 278.644 3.60145 280.5 -6.10914 275L-33 294.5L15.1795 311.5L72.3225 354L293.612 270L474.565 320V279.5C404.537 279.5 386.283 198 311.486 198C241.931 198 205.656 259 88.0089 275Z" fill="url(#paint0_linear_225_3)"/>
</g>
<path d="M0 64C0 28.6538 28.6538 0 64 0H446C481.346 0 510 28.6538 510 64V139H0V64Z" fill="#973150"/>
<defs>
<linearGradient id="paint0_linear_225_3" x1="220.782" y1="201" x2="220.782" y2="354" gradientUnits="userSpaceOnUse">
<stop stop-color="#BC5473"/>
<stop offset="0.746259" stop-color="#BC5473" stop-opacity="0"/>
</linearGradient>
</defs>
</svg>
